<svg width="211" height="58" viewBox="0 0 211 58" fill="none" xmlns="http://www.w3.org/2000/svg">
<rect width="211" height="58" fill="#000091"/>
<path d="M69.986 26.368L71.142 25.297C71.975 26.351 72.961 26.895 74.083 26.895C75.375 26.895 76.123 26.079 76.123 24.991C76.123 22.441 70.496 22.747 70.496 18.956C70.496 17.222 71.924 15.76 73.947 15.76C75.63 15.76 76.854 16.525 77.738 17.698L76.548 18.735C75.851 17.732 75.001 17.188 73.964 17.188C72.859 17.188 72.128 17.936 72.128 18.922C72.128 21.489 77.755 21.166 77.755 24.974C77.755 26.997 76.174 28.323 74.1 28.323C72.332 28.323 71.023 27.66 69.986 26.368ZM80.8029 20.656H79.4599L80.9049 16.1H82.5539L80.8029 20.656ZM85.6214 17.205C85.0604 17.205 84.6014 16.746 84.6014 16.185C84.6014 15.641 85.0604 15.182 85.6214 15.182C86.1824 15.182 86.6244 15.641 86.6244 16.185C86.6244 16.746 86.1824 17.205 85.6214 17.205ZM84.8904 28V19.432H86.3354V28H84.8904ZM88.6584 23.716C88.6584 21.217 90.3754 19.092 93.0614 19.092C94.3024 19.092 95.3224 19.551 96.1044 20.384V15.25H97.5494V28H96.1044V27.048C95.3224 27.881 94.3024 28.34 93.0614 28.34C90.3754 28.34 88.6584 26.215 88.6584 23.716ZM90.1884 23.716C90.1884 25.535 91.4124 26.98 93.2314 26.98C94.4214 26.98 95.4414 26.402 96.1044 25.382V22.05C95.4244 21.013 94.4044 20.452 93.2314 20.452C91.4124 20.452 90.1884 21.897 90.1884 23.716ZM108.211 26.589C107.412 27.66 106.137 28.34 104.539 28.34C101.649 28.34 99.8644 26.215 99.8644 23.716C99.8644 21.115 101.53 19.092 104.182 19.092C106.511 19.092 108.024 20.673 108.024 22.815C108.024 23.155 107.973 23.495 107.922 23.733H101.36V23.767C101.36 25.654 102.652 27.031 104.573 27.031C105.661 27.031 106.579 26.521 107.14 25.756L108.211 26.589ZM104.199 20.333C102.805 20.333 101.819 21.115 101.479 22.594H106.562C106.511 21.353 105.61 20.333 104.199 20.333ZM110.473 28V19.432H111.918V20.401C112.615 19.636 113.499 19.092 114.774 19.092C116.695 19.092 118.123 20.384 118.123 22.815V28H116.661V22.866C116.661 21.336 115.811 20.452 114.485 20.452C113.244 20.452 112.462 21.166 111.918 22.067V28H110.473ZM121.525 25.127V20.758H119.91V19.432H121.525V17.29H122.987V19.432H125.962V20.758H122.987V25.127C122.987 26.47 123.667 26.844 124.704 26.844C125.265 26.844 125.656 26.776 125.979 26.64V27.932C125.571 28.102 125.112 28.17 124.5 28.17C122.596 28.17 121.525 27.218 121.525 25.127ZM128.902 17.205C128.341 17.205 127.882 16.746 127.882 16.185C127.882 15.641 128.341 15.182 128.902 15.182C129.463 15.182 129.905 15.641 129.905 16.185C129.905 16.746 129.463 17.205 128.902 17.205ZM128.171 28V19.432H129.616V28H128.171ZM131.548 19.432H133.163V18.378C133.163 16.542 134.37 15.25 136.206 15.25C137.158 15.25 137.906 15.59 138.416 16.083L137.515 17.137C137.209 16.797 136.818 16.559 136.223 16.559C135.288 16.559 134.625 17.239 134.625 18.344V19.432H137.6V20.758H134.625V28H133.163V20.758H131.548V19.432ZM140.091 17.205C139.53 17.205 139.071 16.746 139.071 16.185C139.071 15.641 139.53 15.182 140.091 15.182C140.652 15.182 141.094 15.641 141.094 16.185C141.094 16.746 140.652 17.205 140.091 17.205ZM139.36 28V19.432H140.805V28H139.36ZM151.475 26.589C150.676 27.66 149.401 28.34 147.803 28.34C144.913 28.34 143.128 26.215 143.128 23.716C143.128 21.115 144.794 19.092 147.446 19.092C149.775 19.092 151.288 20.673 151.288 22.815C151.288 23.155 151.237 23.495 151.186 23.733H144.624V23.767C144.624 25.654 145.916 27.031 147.837 27.031C148.925 27.031 149.843 26.521 150.404 25.756L151.475 26.589ZM147.463 20.333C146.069 20.333 145.083 21.115 144.743 22.594H149.826C149.775 21.353 148.874 20.333 147.463 20.333ZM153.737 28V19.432H155.182V20.503C155.811 19.755 156.593 19.262 157.681 19.262C157.953 19.262 158.208 19.296 158.412 19.364V20.86C158.157 20.792 157.902 20.741 157.562 20.741C156.44 20.741 155.709 21.319 155.182 22.186V28H153.737ZM167.422 28.34C165.739 28.34 164.6 27.388 164.6 25.892C164.6 24.566 165.586 23.614 167.422 23.325L170.295 22.849V22.254C170.295 21.064 169.445 20.384 168.238 20.384C167.235 20.384 166.402 20.826 165.909 21.574L164.821 20.741C165.569 19.721 166.776 19.092 168.272 19.092C170.448 19.092 171.74 20.367 171.74 22.254V28H170.295V26.912C169.649 27.813 168.578 28.34 167.422 28.34ZM166.045 25.841C166.045 26.572 166.674 27.133 167.66 27.133C168.799 27.133 169.7 26.538 170.295 25.552V23.92L167.762 24.362C166.572 24.549 166.045 25.093 166.045 25.841ZM173.297 19.432H174.861L177.598 26.487L180.335 19.432H181.899L178.55 28H176.646L173.297 19.432ZM191.153 26.589C190.354 27.66 189.079 28.34 187.481 28.34C184.591 28.34 182.806 26.215 182.806 23.716C182.806 21.115 184.472 19.092 187.124 19.092C189.453 19.092 190.966 20.673 190.966 22.815C190.966 23.155 190.915 23.495 190.864 23.733H184.302V23.767C184.302 25.654 185.594 27.031 187.515 27.031C188.603 27.031 189.521 26.521 190.082 25.756L191.153 26.589ZM187.141 20.333C185.747 20.333 184.761 21.115 184.421 22.594H189.504C189.453 21.353 188.552 20.333 187.141 20.333ZM197.326 26.98C198.38 26.98 199.23 26.47 199.757 25.705L200.913 26.589C200.114 27.66 198.873 28.34 197.309 28.34C194.47 28.34 192.651 26.215 192.651 23.716C192.651 21.217 194.47 19.092 197.309 19.092C198.856 19.092 200.114 19.789 200.913 20.843L199.757 21.727C199.23 20.962 198.363 20.452 197.309 20.452C195.473 20.452 194.164 21.897 194.164 23.716C194.164 25.552 195.473 26.98 197.326 26.98ZM70.854 45V32.4H75.012C77.784 32.4 79.476 33.822 79.476 36.162C79.476 38.484 77.784 39.906 75.012 39.906H73.41V45H70.854ZM75.12 34.578H73.41V37.728H75.12C76.2 37.728 76.848 37.152 76.848 36.126C76.848 35.172 76.2 34.578 75.12 34.578ZM81.2489 45V35.928H83.5349V36.828C84.1289 36.216 84.9029 35.748 85.9289 35.748C86.2349 35.748 86.5049 35.802 86.7209 35.874V38.268C86.4329 38.196 86.1269 38.142 85.7129 38.142C84.5969 38.142 83.8769 38.754 83.5349 39.312V45H81.2489ZM92.6353 35.568C95.5873 35.568 97.6033 37.746 97.6033 40.464C97.6033 43.182 95.5873 45.36 92.6353 45.36C89.6833 45.36 87.6673 43.182 87.6673 40.464C87.6673 37.746 89.6833 35.568 92.6353 35.568ZM92.6713 43.2C94.1293 43.2 95.2273 42.03 95.2273 40.464C95.2273 38.88 94.1293 37.728 92.6713 37.728C91.1593 37.728 90.0433 38.88 90.0433 40.464C90.0433 42.048 91.1593 43.2 92.6713 43.2ZM105.843 42.966C107.283 42.966 108.417 42.264 109.137 41.238L111.153 42.786C110.001 44.352 108.129 45.36 105.843 45.36C101.865 45.36 99.147 42.3 99.147 38.7C99.147 35.1 101.865 32.04 105.843 32.04C108.129 32.04 110.001 33.066 111.153 34.596L109.137 36.162C108.417 35.136 107.283 34.434 105.843 34.434C103.467 34.434 101.775 36.288 101.775 38.7C101.775 41.112 103.467 42.966 105.843 42.966ZM117.209 35.568C120.161 35.568 122.177 37.746 122.177 40.464C122.177 43.182 120.161 45.36 117.209 45.36C114.257 45.36 112.241 43.182 112.241 40.464C112.241 37.746 114.257 35.568 117.209 35.568ZM117.245 43.2C118.703 43.2 119.801 42.03 119.801 40.464C119.801 38.88 118.703 37.728 117.245 37.728C115.733 37.728 114.617 38.88 114.617 40.464C114.617 42.048 115.733 43.2 117.245 43.2ZM124.263 45V35.928H126.549V36.648C127.179 36.036 128.025 35.568 129.231 35.568C131.193 35.568 132.759 36.918 132.759 39.6V45H130.437V39.69C130.437 38.484 129.771 37.728 128.655 37.728C127.503 37.728 126.891 38.502 126.549 39.078V45H124.263ZM135.354 45V35.928H137.64V36.648C138.27 36.036 139.116 35.568 140.322 35.568C142.284 35.568 143.85 36.918 143.85 39.6V45H141.528V39.69C141.528 38.484 140.862 37.728 139.746 37.728C138.594 37.728 137.982 38.502 137.64 39.078V45H135.354ZM154.798 43.524C153.952 44.658 152.548 45.36 150.838 45.36C147.616 45.36 145.798 43.11 145.798 40.464C145.798 37.782 147.49 35.568 150.46 35.568C152.98 35.568 154.636 37.26 154.636 39.636C154.636 40.14 154.564 40.626 154.492 40.932H148.138C148.282 42.426 149.326 43.308 150.874 43.308C151.864 43.308 152.674 42.876 153.16 42.228L154.798 43.524ZM150.46 37.476C149.344 37.476 148.588 38.016 148.282 39.204H152.368C152.332 38.304 151.666 37.476 150.46 37.476ZM161.156 43.2C162.038 43.2 162.74 42.768 163.172 42.138L164.99 43.524C164.144 44.64 162.812 45.36 161.156 45.36C158.024 45.36 156.152 43.11 156.152 40.464C156.152 37.818 158.024 35.568 161.156 35.568C162.812 35.568 164.144 36.288 164.99 37.404L163.172 38.79C162.74 38.16 162.056 37.728 161.12 37.728C159.626 37.728 158.528 38.88 158.528 40.464C158.528 42.066 159.626 43.2 161.156 43.2ZM167.36 41.688V38.016H165.668V35.928H167.36V33.66H169.664V35.928H172.436V38.016H169.664V41.688C169.664 42.696 170.204 43.092 171.104 43.092C171.734 43.092 172.148 43.02 172.454 42.894V44.892C172.004 45.09 171.464 45.18 170.708 45.18C168.44 45.18 167.36 43.902 167.36 41.688Z" fill="white"/>
<path d="M46.992 19.0979L31.998 10.4209L17.004 19.1819C16.9114 19.2347 16.8344 19.3109 16.7807 19.4029C16.727 19.4949 16.6984 19.5994 16.698 19.7059V36.6539C16.7039 36.7593 16.7347 36.8617 16.7879 36.9528C16.8411 37.0439 16.9151 37.1211 17.004 37.1779L31.996 45.7779L46.99 37.0719C47.0789 37.0151 47.153 36.938 47.2063 36.8469C47.2595 36.7558 47.2902 36.6533 47.296 36.5479V19.6259C47.2966 19.5189 47.2687 19.4136 47.2153 19.3209C47.1619 19.2281 47.0849 19.1512 46.992 19.0979Z" fill="#000091"/>
<path d="M26.641 19.5979L21.612 28.2259L17.055 19.0509L22.445 15.9379L26.934 19.0979L26.641 19.5979ZM47.297 36.5779V19.6199C47.297 19.5134 47.2686 19.4089 47.2149 19.317C47.1611 19.2251 47.0838 19.1491 46.991 19.0969L31.998 10.4209" fill="#FCC63A"/>
<path d="M16.7 36.5779L32 10.4209V45.7829L17.004 37.1779C16.9151 37.1211 16.8411 37.0439 16.7879 36.9528C16.7347 36.8617 16.7039 36.7593 16.698 36.6539V19.7059L16.7 36.5779ZM41.369 15.8429L46.827 18.9979L42.338 28.1479L36.951 18.9119L41.369 15.8429Z" fill="#0063CB"/>
<path d="M51.606 16.3029L32.416 5.28293C32.2868 5.21856 32.1444 5.18506 32 5.18506C31.8556 5.18506 31.7132 5.21856 31.584 5.28293L12.394 16.3029C12.2785 16.3798 12.1827 16.4828 12.1142 16.6035C12.0458 16.7242 12.0067 16.8593 12 16.9979V38.9979C12.0059 39.1374 12.0446 39.2735 12.1131 39.3951C12.1816 39.5168 12.2778 39.6205 12.394 39.6979L31.583 50.7179C31.7122 50.7823 31.8546 50.8158 31.999 50.8158C32.1434 50.8158 32.2858 50.7823 32.415 50.7179L51.606 39.6979C51.7222 39.6205 51.8184 39.5168 51.8869 39.3951C51.9554 39.2735 51.9941 39.1374 52 38.9979V16.9979C51.9933 16.8593 51.9542 16.7242 51.8858 16.6035C51.8173 16.4828 51.7215 16.3798 51.606 16.3029ZM22.789 34.0589H22.868C22.826 34.0589 22.789 34.0659 22.789 34.1089C22.789 34.2089 22.94 34.1089 22.989 34.2089C22.7514 34.2154 22.5257 34.3145 22.36 34.4849C22.36 34.5359 22.46 34.5359 22.511 34.5359C22.436 34.6359 22.285 34.5859 22.234 34.6869C22.2611 34.714 22.2961 34.7315 22.334 34.7369C22.284 34.7369 22.234 34.7369 22.234 34.7879V34.9389C22.108 34.9389 22.058 35.0389 21.957 35.0899C22.157 35.2409 22.284 35.0899 22.485 35.0899C21.957 35.2899 21.529 35.5679 21.001 35.7189C20.901 35.7189 21.001 35.8699 20.901 35.8699C21.052 35.9699 21.128 35.8199 21.278 35.8199C20.624 36.1969 19.945 36.5199 19.241 36.9519C19.1868 37.0059 19.1516 37.0761 19.141 37.1519H18.941C18.841 37.2019 18.891 37.3279 18.79 37.4289C19.016 37.5799 19.29 37.2289 19.444 37.4289C19.494 37.4289 19.344 37.4789 19.244 37.4789C19.194 37.4789 19.194 37.5789 19.144 37.5789H18.99C18.89 37.6539 18.79 37.7049 18.79 37.8549C18.7466 37.8469 18.7019 37.8522 18.6615 37.87C18.6212 37.8879 18.5872 37.9175 18.564 37.9549C19.638 37.9507 20.7027 37.755 21.708 37.3769C22.4877 36.9799 23.1938 36.4527 23.796 35.8179C23.8231 35.8449 23.8406 35.8801 23.846 35.9179C23.6989 36.3544 23.4166 36.7327 23.04 36.9979C22.763 37.1489 22.562 37.3749 22.34 37.4759C22.1917 37.5589 22.0487 37.651 21.912 37.7519C21.2797 37.9486 20.6306 38.0866 19.973 38.1639L19.668 38.2079C19.443 38.2409 19.219 38.2769 18.997 38.3159L17.004 37.1779C16.9311 37.132 16.868 37.072 16.8186 37.0014C16.7691 36.9309 16.7343 36.8512 16.716 36.7669C16.7493 36.7491 16.7808 36.728 16.81 36.7039C16.779 36.671 16.7401 36.6466 16.697 36.6329V35.9829C17.7449 35.7966 18.7655 35.4802 19.735 35.0409C18.8177 34.4034 17.7868 33.9475 16.698 33.6979V32.1829C17.2531 32.2739 17.8008 32.4049 18.337 32.5749C18.7498 32.7266 19.1459 32.9203 19.519 33.1529C19.6656 33.2939 19.8257 33.4202 19.997 33.5299C20.1177 33.5988 20.2525 33.6391 20.3912 33.6478C20.5299 33.6564 20.6687 33.6332 20.797 33.5799H21.127C21.8434 33.4615 22.5135 33.1484 23.064 32.6749C23.064 32.7249 23.114 32.7249 23.164 32.7249C23.0857 33.1236 22.941 33.5062 22.736 33.8569C22.739 33.9079 22.688 34.0089 22.789 34.0589ZM25.606 37.6299C25.857 37.5299 26.006 37.3529 26.235 37.2529C26.185 37.3029 26.185 37.4039 26.135 37.4529C25.9474 37.5702 25.7707 37.704 25.607 37.8529C25.0413 38.3515 24.5116 38.8895 24.022 39.4629C23.77 39.7629 23.494 40.0409 23.222 40.3179C23.1256 40.408 23.0219 40.49 22.912 40.5629L20.385 39.1129C20.7444 39.1433 21.1063 39.1255 21.461 39.0599C21.7554 38.9774 22.0416 38.8679 22.316 38.7329V38.8329C23.016 38.5559 23.548 37.9269 24.253 37.7009C24.278 37.7009 24.379 37.8009 24.479 37.7509C24.6601 37.5265 24.8904 37.3466 25.152 37.2253C25.4136 37.1039 25.6997 37.0443 25.988 37.0509C25.988 37.1009 25.988 37.1509 26.038 37.1509H26.063C25.912 37.2769 25.736 37.4019 25.563 37.5279C25.506 37.5799 25.556 37.6299 25.606 37.6299ZM16.698 31.4659V31.2799C17.2161 31.1444 17.7505 31.0812 18.286 31.0919C18.4443 31.0667 18.6057 31.0667 18.764 31.0919C18.0584 31.0912 17.3585 31.2179 16.698 31.4659ZM47.298 36.5539C47.2922 36.6593 47.2615 36.7618 47.2083 36.8529C47.155 36.944 47.0809 37.0211 46.992 37.0779L36.913 42.9289C35.7558 42.5977 34.618 42.2021 33.505 41.7439C33.3437 41.393 33.256 41.0127 33.2474 40.6266C33.2388 40.2405 33.3095 39.8567 33.455 39.4989C33.5349 39.191 33.6531 38.8943 33.807 38.6159C33.832 38.5909 33.857 38.5659 33.857 38.5399C33.8636 38.5399 33.87 38.5373 33.8747 38.5326C33.8794 38.5279 33.882 38.5216 33.882 38.5149C33.9931 38.3204 34.1191 38.1349 34.259 37.9599L34.274 37.9449L34.294 37.9239L34.309 37.9089C34.309 37.8839 34.334 37.8589 34.359 37.8329C34.384 37.7819 34.434 37.7569 34.459 37.7069C34.6346 37.5211 34.8286 37.3535 35.038 37.2069C35.2507 37.1299 35.4695 37.0707 35.692 37.0299C36.503 37.0896 37.3095 37.1992 38.107 37.3579C38.205 37.3727 38.2992 37.4066 38.384 37.4579C38.6851 37.5166 38.9962 37.4994 39.289 37.4079C39.4799 37.373 39.6587 37.2898 39.8084 37.1662C39.9581 37.0426 40.0736 36.8828 40.144 36.7019C40.232 36.5407 40.2823 36.3616 40.2909 36.1782C40.2996 35.9947 40.2664 35.8117 40.194 35.6429C40.016 35.3669 40.181 35.2059 40.375 35.0529L40.443 34.9979C40.5294 34.9367 40.6071 34.8641 40.674 34.7819C40.8 34.5299 40.574 34.3819 40.523 34.1519C40.473 34.0519 40.297 34.1019 40.196 33.9519C40.548 33.8009 41.051 33.5229 40.825 33.0949C40.674 32.8679 40.448 32.4649 40.725 32.2379C41.077 32.0379 41.58 32.0869 41.731 31.7589C41.7804 31.5683 41.7794 31.3681 41.7282 31.1779C41.6771 30.9877 41.5774 30.8141 41.439 30.6739L41.364 30.5659C41.289 30.4589 41.215 30.3519 41.153 30.2459C40.9941 29.9821 40.8177 29.7292 40.625 29.4889C40.405 29.1775 40.2275 28.8382 40.097 28.4799C39.946 28.1019 40.147 27.7739 40.147 27.3959C40.1618 26.6678 40.0512 25.9425 39.82 25.2519C39.694 24.8989 39.644 24.5209 39.493 24.1929C39.474 23.9821 39.3956 23.781 39.267 23.6129C39.2421 23.5618 39.2292 23.5058 39.2292 23.4489C39.2292 23.3921 39.2421 23.336 39.267 23.2849C39.472 23.1404 39.6656 22.9803 39.846 22.8059C39.9017 22.6836 39.9122 22.5455 39.8756 22.4162C39.839 22.2869 39.7576 22.1748 39.646 22.0999C39.319 21.9489 39.346 22.4279 39.118 22.5289H38.967C38.917 22.4029 39.017 22.3519 39.118 22.2519C39.118 22.2019 39.118 22.1009 39.068 22.1009C38.868 22.1009 38.691 22.0499 38.64 21.9499C38.158 21.3493 37.5113 20.9024 36.779 20.6639C36.967 20.7217 37.1615 20.7553 37.358 20.7639C37.6956 20.8353 38.0471 20.8004 38.364 20.6639C38.591 20.5879 38.641 20.1849 38.741 19.9579C38.7613 19.848 38.7583 19.7351 38.7323 19.6264C38.7063 19.5178 38.6578 19.4157 38.59 19.3269C38.3629 18.9968 38.0495 18.7353 37.684 18.5709C37.508 18.4949 37.231 18.3439 37.005 18.2179C36.928 18.1638 36.8434 18.1213 36.754 18.0919C33.789 16.6069 27.685 17.8919 27.22 18.0919H27.211C26.7825 18.2162 26.3648 18.3751 25.962 18.5669C25.4074 18.7728 24.9066 19.1015 24.497 19.5284C24.0875 19.9553 23.7798 20.4693 23.597 21.0319C23.026 21.407 22.5658 21.928 22.264 22.5409C21.836 23.3409 21.208 24.0499 21.308 24.9549C21.408 25.7349 21.585 26.4389 21.736 27.2439C21.7789 27.516 21.8459 27.7837 21.936 28.0439C22.036 28.3199 21.936 28.6729 22.087 28.8989C22.162 29.0499 22.112 29.2259 22.314 29.3269V29.5269C22.364 29.5769 22.364 29.6269 22.465 29.6269V29.8269C22.8997 30.2504 23.2723 30.7332 23.572 31.2609C23.672 31.5369 23.094 31.4119 22.872 31.3109C22.4565 31.0404 22.0762 30.7193 21.74 30.3549C21.7125 30.3818 21.6946 30.4169 21.689 30.4549C21.889 30.8069 22.595 31.2349 22.217 31.4609C22.017 31.5609 21.789 31.3099 21.588 31.5119C21.538 31.5869 21.588 31.6879 21.588 31.7879C21.311 31.5879 21.01 31.6879 20.733 31.5879C20.533 31.5379 20.481 31.1609 20.255 31.1609C19.6585 31.0154 19.0537 30.9062 18.444 30.8339C17.8679 30.7475 17.2872 30.6944 16.705 30.6749V19.7059C16.7054 19.5994 16.734 19.4949 16.7877 19.4029C16.8414 19.3109 16.9184 19.2347 17.011 19.1819L31.998 10.4209L46.992 19.0979C47.0846 19.1506 47.1617 19.2268 47.2154 19.3188C47.2692 19.4108 47.2977 19.5154 47.298 19.6219V36.5539ZM39.344 28.2929C39.3138 28.3399 39.2719 28.3783 39.2225 28.4044C39.1731 28.4305 39.1178 28.4434 39.062 28.4419C38.9618 28.5263 38.8676 28.6175 38.78 28.7149C38.88 28.7149 38.78 28.8639 38.88 28.8639C38.675 29.0869 38.957 29.5579 38.675 29.6569C38.3059 29.7559 37.9171 29.7559 37.548 29.6569C37.6029 29.6451 37.6589 29.6398 37.715 29.6409H37.8C37.8627 29.6485 37.9263 29.6404 37.9851 29.6174C38.0439 29.5943 38.0961 29.5571 38.137 29.5089V29.3089C38.137 29.2589 38.086 29.2589 38.037 29.2589C38.0107 29.287 37.9752 29.3048 37.937 29.3089C37.9345 29.2639 37.9185 29.2207 37.891 29.185C37.8635 29.1493 37.8259 29.1228 37.783 29.1089C37.6501 29.1267 37.5148 29.111 37.3894 29.0633C37.2641 29.0157 37.1526 28.9375 37.065 28.8359C37.2006 28.7708 37.3542 28.7532 37.501 28.7859C37.629 28.7859 37.578 28.5629 37.732 28.4639H37.886C38.193 28.0919 38.757 27.9929 38.86 27.6209C38.86 27.5209 38.578 27.5209 38.373 27.4719C38.0989 27.4383 37.821 27.4553 37.553 27.5219C37.1932 27.5716 36.8405 27.6632 36.502 27.7949C36.7823 27.5892 37.094 27.4302 37.425 27.3239C37.6574 27.2344 37.8978 27.1674 38.143 27.1239L38.275 27.0979L38.408 27.0709C38.5894 27.0167 38.7826 27.0167 38.964 27.0709C39.195 27.1709 39.579 27.1709 39.63 27.3189C39.73 27.5919 39.476 27.8639 39.195 28.0629C39.138 28.1439 39.344 28.1979 39.344 28.2929Z" fill="white"/>
<rect x="37" y="5" width="29.56" height="13.302" rx="2" fill="#FCC63A"/>
<path d="M39.562 16.1676V7.31589H42.483C43.4525 7.31589 44.2154 7.55194 44.7718 8.02403C45.3366 8.49612 45.6191 9.14104 45.6191 9.95877C45.6191 10.7681 45.3366 11.4088 44.7718 11.8809C44.2154 12.3529 43.4525 12.589 42.483 12.589H41.3576V16.1676H39.562ZM42.5589 8.84598H41.3576V11.0589H42.5589C42.9383 11.0589 43.2333 10.962 43.4441 10.7681C43.6632 10.5742 43.7728 10.296 43.7728 9.93348C43.7728 9.59627 43.6632 9.33071 43.4441 9.13682C43.2333 8.94293 42.9383 8.84598 42.5589 8.84598Z" fill="#161616"/>
<path d="M47.2306 16.1676V7.31589H49.9367C50.9062 7.31589 51.6734 7.55194 52.2382 8.02403C52.803 8.49612 53.0854 9.14104 53.0854 9.95877C53.0854 10.4899 52.959 10.9535 52.7061 11.3498C52.4616 11.7375 52.116 12.0368 51.6692 12.2476L54.4511 16.1676H52.3014L49.9494 12.589H49.0263V16.1676H47.2306ZM50.0379 8.84598H49.0263V11.0589H50.0379C50.4173 11.0589 50.7123 10.962 50.9231 10.7681C51.1338 10.5742 51.2392 10.296 51.2392 9.93348C51.2392 9.59627 51.1338 9.33071 50.9231 9.13682C50.7123 8.94293 50.4173 8.84598 50.0379 8.84598Z" fill="#161616"/>
<path d="M59.5486 7.06299C60.2398 7.06299 60.8721 7.18944 61.4454 7.44235C62.0271 7.69525 62.5244 8.03246 62.9375 8.45397C63.3506 8.87548 63.6709 9.37287 63.8986 9.94612C64.1262 10.5109 64.24 11.1095 64.24 11.7418C64.24 12.374 64.1262 12.9768 63.8986 13.55C63.6709 14.1149 63.3506 14.608 62.9375 15.0295C62.5244 15.451 62.0271 15.7883 61.4454 16.0412C60.8721 16.2941 60.2398 16.4205 59.5486 16.4205C58.8573 16.4205 58.2208 16.2941 57.6391 16.0412C57.0574 15.7883 56.5601 15.451 56.147 15.0295C55.7339 14.608 55.4135 14.1149 55.1859 13.55C54.9583 12.9768 54.8445 12.374 54.8445 11.7418C54.8445 11.1095 54.9583 10.5109 55.1859 9.94612C55.4135 9.37287 55.7339 8.87548 56.147 8.45397C56.5601 8.03246 57.0574 7.69525 57.6391 7.44235C58.2208 7.18944 58.8573 7.06299 59.5486 7.06299ZM59.5486 14.7387C59.9616 14.7387 60.341 14.6628 60.6866 14.5111C61.0407 14.3509 61.34 14.1402 61.5845 13.8788C61.8374 13.609 62.0355 13.2929 62.1788 12.9304C62.3221 12.5595 62.3938 12.1633 62.3938 11.7418C62.3938 11.3202 62.3221 10.9282 62.1788 10.5657C62.0355 10.1948 61.8374 9.87868 61.5845 9.61734C61.34 9.34758 61.0407 9.13682 60.6866 8.98508C60.341 8.8249 59.9616 8.74482 59.5486 8.74482C59.1355 8.74482 58.7519 8.8249 58.3978 8.98508C58.0438 9.13682 57.7403 9.34758 57.4874 9.61734C57.2429 9.87868 57.049 10.1948 56.9057 10.5657C56.7624 10.9282 56.6907 11.3202 56.6907 11.7418C56.6907 12.1633 56.7624 12.5595 56.9057 12.9304C57.049 13.2929 57.2429 13.609 57.4874 13.8788C57.7403 14.1402 58.0438 14.3509 58.3978 14.5111C58.7519 14.6628 59.1355 14.7387 59.5486 14.7387Z" fill="#161616"/>
</svg>
